<svg xmlns="http://www.w3.org/2000/svg" xmlns:xlink="http://www.w3.org/1999/xlink" width="500" zoomAndPan="magnify" viewBox="0 0 375 374.999991" height="500" preserveAspectRatio="xMidYMid meet" version="1.0"><defs><g/><clipPath id="f7d9db6151"><path d="M 90.589844 0 L 236 0 L 236 197 L 90.589844 197 Z M 90.589844 0 " clip-rule="nonzero"/></clipPath><clipPath id="6ac0adb8f6"><path d="M 192 95 L 284.089844 95 L 284.089844 246 L 192 246 Z M 192 95 " clip-rule="nonzero"/></clipPath></defs><g clip-path="url(#f7d9db6151)"><path fill="#000000" d="M 140.769531 196.859375 L 92.726562 196.859375 C 91.546875 196.859375 90.59375 195.90625 90.59375 194.726562 L 90.59375 84.378906 C 90.59375 37.9375 131.503906 0.152344 181.789062 0.152344 L 233.628906 0.152344 C 234.804688 0.152344 235.757812 1.109375 235.757812 2.285156 L 235.757812 46.324219 C 235.757812 47.503906 234.804688 48.460938 233.628906 48.460938 L 181.789062 48.460938 C 160.34375 48.460938 142.898438 64.570312 142.898438 84.378906 L 142.898438 194.726562 C 142.898438 195.90625 141.945312 196.859375 140.769531 196.859375 " fill-opacity="1" fill-rule="nonzero"/></g><g clip-path="url(#6ac0adb8f6)"><path fill="#000000" d="M 192.886719 243.671875 L 192.886719 199.605469 C 192.886719 198.460938 193.789062 197.535156 194.933594 197.476562 C 215.429688 196.492188 231.78125 180.78125 231.78125 161.609375 L 231.78125 145.707031 C 231.78125 144.527344 230.824219 143.570312 229.648438 143.570312 L 195.019531 143.570312 C 193.84375 143.570312 192.886719 142.617188 192.886719 141.4375 L 192.886719 97.398438 C 192.886719 96.222656 193.84375 95.265625 195.019531 95.265625 L 281.953125 95.265625 C 283.128906 95.265625 284.085938 96.222656 284.085938 97.398438 L 284.085938 161.609375 C 284.085938 207.375 244.351562 244.734375 195.070312 245.808594 C 193.875 245.835938 192.886719 244.871094 192.886719 243.671875 " fill-opacity="1" fill-rule="nonzero"/></g><g fill="#000000" fill-opacity="1"><g transform="translate(50.270489, 358.603409)"><g><path d="M 28.796875 -49.578125 C 31.609375 -49.578125 34.207031 -49.179688 36.59375 -48.390625 C 38.976562 -47.597656 41.082031 -46.566406 42.90625 -45.296875 C 44.738281 -44.035156 46.171875 -42.679688 47.203125 -41.234375 L 42.28125 -36.09375 C 40.40625 -37.875 38.34375 -39.335938 36.09375 -40.484375 C 33.851562 -41.628906 31.421875 -42.203125 28.796875 -42.203125 C 25.472656 -42.203125 22.460938 -41.429688 19.765625 -39.890625 C 17.078125 -38.347656 14.957031 -36.253906 13.40625 -33.609375 C 11.863281 -30.960938 11.09375 -27.953125 11.09375 -24.578125 C 11.09375 -21.253906 11.910156 -18.234375 13.546875 -15.515625 C 15.191406 -12.804688 17.382812 -10.65625 20.125 -9.0625 C 22.863281 -7.46875 25.847656 -6.671875 29.078125 -6.671875 C 31.421875 -6.671875 33.617188 -7.125 35.671875 -8.03125 C 37.734375 -8.945312 39.40625 -10.203125 40.6875 -11.796875 C 41.976562 -13.390625 42.625 -15.21875 42.625 -17.28125 C 42.625 -17.507812 42.625 -17.648438 42.625 -17.703125 L 28.65625 -17.703125 L 28.65625 -25.21875 L 50.421875 -25.21875 C 50.515625 -24.507812 50.597656 -23.800781 50.671875 -23.09375 C 50.742188 -22.394531 50.78125 -21.695312 50.78125 -21 C 50.78125 -18.425781 50.394531 -15.894531 49.625 -13.40625 C 48.851562 -10.925781 47.644531 -8.773438 46 -6.953125 C 44.125 -4.609375 41.703125 -2.742188 38.734375 -1.359375 C 35.765625 0.015625 32.472656 0.703125 28.859375 0.703125 C 25.304688 0.703125 21.984375 0.0625 18.890625 -1.21875 C 15.796875 -2.507812 13.078125 -4.300781 10.734375 -6.59375 C 8.398438 -8.894531 6.585938 -11.578125 5.296875 -14.640625 C 4.015625 -17.710938 3.375 -21.023438 3.375 -24.578125 C 3.375 -28.140625 4.015625 -31.429688 5.296875 -34.453125 C 6.585938 -37.472656 8.390625 -40.117188 10.703125 -42.390625 C 13.023438 -44.660156 15.726562 -46.425781 18.8125 -47.6875 C 21.90625 -48.945312 25.234375 -49.578125 28.796875 -49.578125 Z M 28.796875 -49.578125 "/></g></g></g><g fill="#000000" fill-opacity="1"><g transform="translate(104.061787, 358.603409)"><g><path d="M 26.90625 -49.15625 C 29.519531 -49.15625 31.925781 -48.488281 34.125 -47.15625 C 36.332031 -45.820312 38.09375 -44.019531 39.40625 -41.75 C 40.71875 -39.476562 41.375 -36.914062 41.375 -34.0625 C 41.375 -31.25 40.71875 -28.679688 39.40625 -26.359375 C 38.09375 -24.046875 36.332031 -22.210938 34.125 -20.859375 C 31.925781 -19.503906 29.519531 -18.828125 26.90625 -18.828125 L 14.46875 -18.828125 L 14.46875 0 L 6.890625 0 L 6.890625 -49.15625 Z M 26.765625 -26.125 C 28.023438 -26.125 29.171875 -26.484375 30.203125 -27.203125 C 31.234375 -27.929688 32.0625 -28.894531 32.6875 -30.09375 C 33.320312 -31.289062 33.640625 -32.613281 33.640625 -34.0625 C 33.640625 -36.257812 32.957031 -38.109375 31.59375 -39.609375 C 30.238281 -41.109375 28.628906 -41.859375 26.765625 -41.859375 L 14.46875 -41.859375 L 14.46875 -26.125 Z M 26.765625 -26.125 "/></g></g></g><g fill="#000000" fill-opacity="1"><g transform="translate(148.583581, 358.603409)"><g><path d="M 48.53125 -49.15625 L 28.71875 0 L 21.34375 0 L 1.6875 -49.15625 L 10.328125 -49.15625 L 22.046875 -19.3125 C 22.660156 -17.71875 23.257812 -16.148438 23.84375 -14.609375 C 24.425781 -13.066406 24.976562 -11.5 25.5 -9.90625 C 26.007812 -11.5 26.546875 -13.078125 27.109375 -14.640625 C 27.671875 -16.210938 28.234375 -17.769531 28.796875 -19.3125 L 39.6875 -49.15625 Z M 48.53125 -49.15625 "/></g></g></g><g fill="#000000" fill-opacity="1"><g transform="translate(198.793475, 358.603409)"><g><path d="M 39.609375 -51.96875 L 39.609375 0 L 32.375 0 L 32.375 -5.203125 C 31.300781 -3.742188 29.707031 -2.394531 27.59375 -1.15625 C 25.488281 0.0820312 23.101562 0.703125 20.4375 0.703125 C 17.113281 0.703125 14.113281 -0.113281 11.4375 -1.75 C 8.769531 -3.394531 6.664062 -5.664062 5.125 -8.5625 C 3.582031 -11.46875 2.8125 -14.769531 2.8125 -18.46875 C 2.8125 -22.21875 3.582031 -25.53125 5.125 -28.40625 C 6.664062 -31.289062 8.75 -33.550781 11.375 -35.1875 C 14 -36.820312 16.953125 -37.640625 20.234375 -37.640625 C 22.847656 -37.640625 25.21875 -37.101562 27.34375 -36.03125 C 29.476562 -34.957031 31.15625 -33.691406 32.375 -32.234375 L 32.375 -51.96875 Z M 21.421875 -5.546875 C 23.671875 -5.546875 25.632812 -6.109375 27.3125 -7.234375 C 29 -8.359375 30.3125 -9.898438 31.25 -11.859375 C 32.1875 -13.828125 32.65625 -16.03125 32.65625 -18.46875 C 32.65625 -20.945312 32.1875 -23.160156 31.25 -25.109375 C 30.3125 -27.054688 29 -28.585938 27.3125 -29.703125 C 25.632812 -30.828125 23.671875 -31.390625 21.421875 -31.390625 C 19.222656 -31.390625 17.28125 -30.828125 15.59375 -29.703125 C 13.90625 -28.585938 12.582031 -27.054688 11.625 -25.109375 C 10.664062 -23.160156 10.1875 -20.945312 10.1875 -18.46875 C 10.1875 -16.03125 10.664062 -13.828125 11.625 -11.859375 C 12.582031 -9.898438 13.90625 -8.359375 15.59375 -7.234375 C 17.28125 -6.109375 19.222656 -5.546875 21.421875 -5.546875 Z M 21.421875 -5.546875 "/></g></g></g><g fill="#000000" fill-opacity="1"><g transform="translate(243.315269, 358.603409)"><g><path d="M 36.734375 -4.84375 L 36.65625 -4.84375 C 35.164062 -3.394531 33.109375 -2.109375 30.484375 -0.984375 C 27.859375 0.140625 25.117188 0.703125 22.265625 0.703125 C 18.421875 0.703125 15.035156 -0.101562 12.109375 -1.71875 C 9.179688 -3.332031 6.898438 -5.554688 5.265625 -8.390625 C 3.628906 -11.222656 2.8125 -14.441406 2.8125 -18.046875 C 2.8125 -22.171875 3.675781 -25.695312 5.40625 -28.625 C 7.132812 -31.550781 9.425781 -33.796875 12.28125 -35.359375 C 15.144531 -36.929688 18.257812 -37.71875 21.625 -37.71875 C 24.71875 -37.71875 27.53125 -36.957031 30.0625 -35.4375 C 32.59375 -33.914062 34.601562 -31.816406 36.09375 -29.140625 C 37.59375 -26.472656 38.34375 -23.363281 38.34375 -19.8125 L 38.28125 -16.71875 L 10.046875 -16.71875 C 10.460938 -13.394531 11.828125 -10.757812 14.140625 -8.8125 C 16.460938 -6.875 19.40625 -5.90625 22.96875 -5.90625 C 25.539062 -5.90625 27.625 -6.382812 29.21875 -7.34375 C 30.8125 -8.300781 32.125 -9.222656 33.15625 -10.109375 Z M 21.625 -31.046875 C 18.863281 -31.046875 16.453125 -30.398438 14.390625 -29.109375 C 12.335938 -27.828125 10.984375 -25.613281 10.328125 -22.46875 L 30.96875 -22.46875 L 30.96875 -22.96875 C 30.832031 -24.5625 30.304688 -25.960938 29.390625 -27.171875 C 28.484375 -28.390625 27.347656 -29.335938 25.984375 -30.015625 C 24.628906 -30.703125 23.175781 -31.046875 21.625 -31.046875 Z M 21.625 -31.046875 "/></g></g></g><g fill="#000000" fill-opacity="1"><g transform="translate(284.466306, 358.603409)"><g><path d="M 9.34375 -36.875 L 20.09375 -10.53125 L 31.25 -36.875 L 38.703125 -36.875 L 22.328125 0 L 17.140625 0 L 1.546875 -36.875 Z M 9.34375 -36.875 "/></g></g></g></svg>